<?xml version="1.0" standalone="no"?>
<!DOCTYPE svg PUBLIC "-//W3C//DTD SVG 20010904//EN"
 "http://www.w3.org/TR/2001/REC-SVG-20010904/DTD/svg10.dtd">
<svg version="1.0" xmlns="http://www.w3.org/2000/svg"
 width="1080.000000pt" height="1080.000000pt" viewBox="0 0 1080.000000 1080.000000"
 preserveAspectRatio="xMidYMid meet">
<metadata>
Created by potrace 1.11, written by Peter Selinger 2001-2013
</metadata>
<g transform="translate(0.000000,1080.000000) scale(0.100000,-0.100000)"
fill="#000000" stroke="none">
<path d="M4052 9621 c-47 -12 -124 -42 -120 -47 3 -2 28 5 57 16 29 11 78 23
109 26 50 5 198 -5 302 -21 24 -3 20 0 -15 10 -58 18 -285 28 -333 16z"/>
<path d="M4955 9589 c111 -4 203 -14 264 -28 52 -11 96 -19 98 -17 5 5 -117
34 -197 46 -36 5 -126 9 -200 8 l-135 -1 170 -8z"/>
<path d="M4484 9570 c28 -11 51 -18 53 -16 5 5 -74 36 -90 36 -6 -1 10 -10 37
-20z"/>
<path d="M5593 9573 c9 -2 23 -2 30 0 6 3 -1 5 -18 5 -16 0 -22 -2 -12 -5z"/>
<path d="M6765 9570 l-40 -7 37 -2 c20 0 40 4 43 9 3 6 5 9 3 9 -2 -1 -21 -5
-43 -9z"/>
<path d="M5510 9545 c-25 -13 -63 -25 -85 -25 -37 -1 -38 -2 -17 -13 20 -9 34
-5 95 26 40 20 68 36 62 36 -5 0 -30 -11 -55 -24z"/>
<path d="M5714 9529 l79 -41 56 15 56 15 -62 -5 c-54 -5 -69 -2 -128 26 -95
44 -95 38 -1 -10z"/>
<path d="M6923 9563 c9 -2 25 -2 35 0 9 3 1 5 -18 5 -19 0 -27 -2 -17 -5z"/>
<path d="M3874 9544 c-18 -14 -18 -15 4 -4 12 6 22 13 22 15 0 8 -5 6 -26 -11z"/>
<path d="M6655 9546 c-22 -7 -68 -27 -102 -44 -66 -34 -103 -39 -150 -21 -77
29 -368 62 -438 50 -46 -8 -42 -9 45 -10 125 -1 241 -16 368 -46 l102 -25 65
36 c36 20 92 44 123 54 31 10 50 18 42 18 -8 1 -33 -5 -55 -12z"/>
<path d="M6988 9553 c7 -3 16 -2 19 1 4 3 -2 6 -13 5 -11 0 -14 -3 -6 -6z"/>
<path d="M4550 9546 c0 -2 7 -7 16 -10 8 -3 12 -2 9 4 -6 10 -25 14 -25 6z"/>
<path d="M4708 9526 c-15 -35 -34 -39 -79 -16 -50 26 -50 20 2 -14 49 -33 70
-28 85 19 13 40 9 46 -8 11z"/>
<path d="M7080 9525 c36 -13 67 -25 70 -24 15 0 -70 38 -100 43 -22 4 -11 -3
30 -19z"/>
<path d="M3753 9455 c-39 -35 -83 -91 -122 -153 -61 -99 -144 -265 -155 -312
l-6 -25 12 25 c6 14 33 71 59 127 62 135 144 258 219 333 34 33 60 60 58 60
-3 0 -32 -25 -65 -55z"/>
<path d="M7200 9473 c60 -41 120 -115 160 -196 47 -95 48 -103 32 -282 -14
-149 -46 -249 -108 -332 l-24 -31 21 -83 c11 -46 19 -99 16 -119 -3 -21 7 -77
24 -139 16 -58 29 -120 29 -138 0 -20 20 -73 49 -131 26 -53 56 -120 65 -149
11 -33 40 -79 83 -130 489 -586 718 -1337 638 -2100 -9 -80 -18 -149 -20 -153
-3 -4 20 -72 49 -151 l55 -144 74 -10 c90 -13 123 -33 137 -82 8 -26 10 -176
8 -465 -3 -412 -4 -428 -23 -447 -33 -32 -360 -181 -397 -181 -18 0 -150 22
-293 49 l-260 48 -118 -111 c-269 -252 -474 -399 -752 -538 -284 -143 -576
-231 -920 -280 -119 -17 -502 -17 -625 0 -641 90 -1214 368 -1690 821 l-95 90
-56 -6 c-56 -5 -56 -5 -419 166 -200 94 -375 181 -389 193 l-26 23 19 -23 c11
-12 38 -32 61 -45 22 -13 396 -326 831 -696 585 -499 826 -710 932 -819 79
-81 139 -138 133 -127 -5 11 -71 81 -145 155 -75 74 -136 140 -136 147 0 26
32 43 79 43 176 0 503 -167 827 -422 118 -93 254 -210 413 -356 56 -51 107
-92 114 -89 37 12 87 164 87 264 0 99 30 184 87 250 37 42 580 463 598 463 19
0 56 -50 47 -64 -4 -7 -128 -126 -277 -266 -148 -139 -273 -258 -278 -266 -4
-7 -4 -19 -1 -28 16 -42 51 -14 319 254 148 149 277 270 286 270 21 0 49 -32
49 -55 0 -11 -111 -130 -271 -291 -149 -150 -269 -278 -267 -285 2 -7 10 -15
17 -17 7 -2 136 118 286 268 289 288 298 295 333 242 15 -23 10 -29 -256 -295
-268 -268 -297 -305 -257 -321 8 -3 21 -3 28 -1 6 3 125 125 262 271 138 146
257 270 266 275 21 11 69 -24 69 -49 0 -18 -380 -505 -453 -580 -23 -24 -55
-51 -72 -59 -44 -23 -123 -43 -175 -43 -115 -1 -254 -57 -330 -135 -32 -33
-43 -51 -42 -74 2 -66 63 -138 164 -195 50 -28 131 -103 379 -353 332 -334
349 -355 334 -424 -9 -42 -59 -95 -101 -109 -82 -27 -73 -34 -529 421 -270
269 -428 419 -440 419 -13 0 -170 -150 -440 -421 -231 -231 -432 -427 -447
-435 -35 -18 -111 -18 -148 1 -32 17 -47 39 -66 100 -9 27 -13 33 -13 17 -2
-48 32 -92 197 -256 l169 -168 109 -14 c210 -26 583 -37 851 -25 300 13 437
29 693 81 351 71 689 181 995 323 183 85 623 312 735 379 306 181 783 606
1108 985 250 292 344 439 571 893 232 464 308 655 411 1030 119 434 165 907
141 1452 -15 327 -37 512 -95 773 l-24 108 -1458 1456 c-803 801 -1475 1464
-1494 1474 -32 16 -33 16 -10 0z"/>
<path d="M4108 9410 c-147 -19 -259 -122 -363 -336 -36 -74 -65 -137 -65 -142
0 -4 18 -29 40 -56 22 -26 40 -56 40 -65 0 -23 53 -112 84 -140 14 -14 26 -28
26 -32 0 -5 -54 -49 -120 -99 -151 -114 -154 -117 -135 -195 8 -33 14 -65 15
-72 0 -7 -27 -31 -60 -54 l-59 -42 36 -51 c20 -28 36 -55 36 -61 0 -5 -15 -32
-33 -58 -29 -44 -32 -53 -26 -97 6 -48 6 -50 -29 -72 -19 -13 -35 -26 -35 -29
0 -4 18 -18 40 -33 22 -14 40 -29 40 -32 0 -3 -31 -40 -68 -82 -154 -172 -266
-341 -377 -567 -155 -316 -238 -616 -261 -947 l-7 -97 -46 -10 c-25 -5 -86
-17 -136 -26 -49 -9 -98 -19 -107 -21 -17 -5 -18 -28 -18 -311 l0 -306 41 7
c22 4 46 7 52 9 9 1 13 -99 15 -408 l2 -411 98 -48 c53 -27 192 -94 307 -148
l210 -100 82 17 83 16 32 -38 c66 -80 297 -302 378 -365 255 -197 524 -338
835 -437 723 -232 1552 -115 2186 308 211 141 378 285 540 468 l64 73 265 -50
c146 -27 281 -53 301 -56 30 -5 58 4 172 56 l137 63 0 314 c0 242 -3 315 -12
318 -7 2 -44 9 -83 15 l-70 11 -89 241 -89 240 18 141 c37 285 22 621 -41 907
-92 416 -322 864 -595 1155 -38 40 -53 68 -78 142 -39 117 -65 168 -135 267
-31 43 -56 80 -54 81 2 1 13 7 25 14 18 9 21 17 17 44 -9 54 -55 190 -75 223
-26 42 -24 54 7 54 25 0 26 3 21 34 -3 19 -16 61 -30 94 l-24 61 43 31 c55 39
89 96 110 185 18 79 14 160 -12 224 -12 30 -13 45 -5 54 8 10 6 22 -7 45 -29
54 -70 90 -130 114 -48 19 -76 22 -182 23 -119 0 -128 -1 -183 -29 -36 -19
-82 -55 -121 -96 l-63 -67 -61 25 c-54 22 -61 28 -56 47 5 20 -1 24 -58 38
-95 24 -263 40 -343 34 -38 -3 -93 -15 -122 -27 l-52 -22 -93 47 -93 48 -78
-48 -78 -48 -75 37 c-42 20 -110 46 -152 57 -82 21 -297 43 -314 33 -6 -4 -8
-22 -4 -44 l6 -37 -58 -6 c-31 -3 -92 -19 -135 -36 l-77 -31 -84 64 c-94 72
-146 92 -267 106 -92 11 -98 11 -181 0z m1102 -1295 c0 -8 -9 -15 -20 -15 -11
0 -20 7 -20 15 0 8 9 15 20 15 11 0 20 -7 20 -15z m896 -6 c3 -6 2 -15 -2 -19
-12 -12 -38 5 -30 19 9 14 23 14 32 0z m-226 -464 c18 -21 3 -35 -38 -35 -42
0 -93 -28 -129 -70 -26 -31 -53 -31 -53 1 0 25 58 89 95 105 41 18 110 18 125
-1z m1612 -359 c224 -343 350 -709 388 -1131 11 -122 12 -293 2 -370 l-7 -50
-29 78 c-27 74 -28 85 -22 176 6 83 2 126 -24 287 -34 207 -51 278 -112 462
-48 147 -171 399 -262 536 -36 55 -66 102 -66 104 0 2 -23 35 -51 74 -60 83
-65 94 -49 113 10 12 24 0 83 -72 39 -48 106 -141 149 -207z m-3995 97 c-126
-165 -263 -423 -337 -637 -68 -200 -100 -343 -120 -545 -11 -109 -17 -121 -59
-121 -23 0 -24 0 -17 83 39 457 226 935 508 1294 l53 67 9 -41 c8 -39 6 -44
-37 -100z m1822 -450 c16 -20 44 -63 61 -95 17 -32 35 -58 39 -58 4 0 15 18
24 40 27 70 55 51 76 -52 18 -87 38 -102 158 -118 110 -14 165 -9 221 19 32
16 39 26 49 69 12 53 39 102 55 102 15 0 38 -67 38 -113 0 -33 -6 -51 -25 -71
-45 -49 -76 -55 -286 -57 -165 -2 -199 0 -226 14 -32 17 -119 134 -196 263
-55 92 -47 129 12 57z m-48 -764 l39 -31 -2 -236 -3 -237 -210 0 -210 0 -3 88
-3 87 -58 0 c-32 0 -92 -3 -134 -6 l-77 -7 0 -358 0 -359 130 0 130 0 0 99 0
99 168 6 c92 3 188 8 215 11 l47 4 -1 -177 0 -177 -125 -95 -125 -95 -72 -6
c-40 -4 -182 -12 -316 -18 l-244 -12 -123 82 -124 82 2 531 3 530 130 101 129
100 223 0 c172 0 223 3 223 13 0 9 42 12 176 12 l176 0 39 -31z m839 -149 l0
-169 -57 -3 -58 -3 0 -365 0 -365 78 -3 77 -3 0 71 0 70 210 0 210 0 0 -247 0
-246 -282 7 c-454 11 -840 24 -843 28 -2 2 -5 80 -6 173 l-1 170 61 3 61 3 0
354 0 354 -61 3 -60 3 0 130 c0 124 1 130 20 133 20 3 21 -1 21 -112 l0 -115
58 -3 57 -3 3 -392 2 -393 -60 0 -60 0 0 -140 0 -140 43 0 c43 0 535 -15 840
-25 l167 -6 0 211 0 210 -170 0 -170 0 0 -65 0 -66 -117 3 -118 3 -3 398 -2
397 60 0 60 0 0 139 c0 147 4 171 26 171 11 0 14 -31 14 -170z m-2050 -50 c0
-129 -3 -170 -12 -170 -7 0 -30 -5 -50 -11 l-38 -10 0 -459 0 -459 -123 -94
-122 -94 -345 -67 -345 -68 -120 58 -120 59 -3 453 -2 454 -43 -7 c-23 -4 -46
-8 -52 -9 -13 -1 -19 324 -7 336 5 5 139 34 298 63 159 30 299 57 312 60 l22
5 0 -174 0 -175 -42 -8 -43 -9 -3 -368 c-2 -347 -1 -367 15 -362 10 3 74 17
143 31 69 14 133 28 143 31 16 5 17 29 15 367 l-3 362 -25 -3 c-14 -1 -40 -5
-57 -8 l-33 -5 0 169 0 170 93 16 c50 9 189 34 307 55 118 22 221 40 228 40 9
1 12 -39 12 -169z m1567 111 c71 -5 86 -10 110 -33 36 -35 109 -68 151 -68 18
0 55 11 83 25 27 14 54 23 59 20 6 -4 10 -30 10 -60 0 -57 -7 -65 -59 -65 -15
0 -32 -5 -39 -12 -18 -18 -17 -763 1 -798 11 -22 22 -26 107 -37 138 -18 157
-7 169 92 l6 50 121 3 c95 2 124 0 133 -12 8 -9 11 -66 9 -187 l-3 -174 -160
0 c-88 0 -299 3 -469 8 -250 6 -314 10 -333 22 -21 14 -23 22 -23 108 0 105 6
117 60 117 20 0 41 5 48 12 9 9 12 110 12 393 0 426 0 425 -65 425 -45 0 -55
20 -55 108 0 74 5 86 29 76 9 -4 53 -10 98 -13z m1793 -41 c101 -17 186 -33
188 -35 4 -3 147 -381 391 -1030 l38 -100 61 -9 62 -9 0 -185 c0 -180 0 -184
-20 -179 -11 3 -162 31 -335 63 l-315 58 0 173 0 173 40 0 c22 0 40 3 40 8 -1
23 -28 34 -131 52 -63 11 -129 22 -145 26 -24 5 -33 2 -38 -12 -8 -22 5 -30
61 -39 l43 -6 0 -175 c0 -103 -4 -174 -9 -174 -14 0 -602 89 -628 95 -23 5
-23 7 -23 186 l0 181 33 -6 c17 -3 50 -8 73 -12 l41 -6 70 203 c279 807 277
800 298 795 11 -3 103 -19 205 -36z m-3060 -1496 l115 -76 86 6 c84 6 87 6
170 -33 252 -116 555 -173 805 -152 195 17 413 75 594 157 l75 35 135 -3 c161
-4 172 -14 62 -60 -40 -17 -91 -48 -114 -69 -37 -35 -67 -47 -253 -108 -192
-63 -225 -71 -380 -90 -151 -18 -188 -19 -330 -10 -88 6 -194 9 -235 6 -70 -4
-78 -2 -117 24 -25 18 -104 48 -201 77 -130 39 -167 54 -200 83 -37 32 -206
132 -254 151 -27 11 -34 -15 -19 -73 l13 -48 -68 -120 -67 -120 -56 -19 c-31
-10 -57 -25 -59 -33 -4 -22 241 -156 311 -171 105 -22 177 33 177 137 0 46 3
54 31 74 17 13 37 38 45 57 16 39 29 43 44 14 9 -16 3 -48 -26 -152 -34 -118
-41 -133 -67 -147 -51 -27 -83 -59 -72 -69 13 -13 483 -152 513 -152 29 0 28
13 -7 74 -16 28 -34 77 -41 109 l-13 58 36 33 c41 37 57 71 57 122 0 40 6 42
37 12 22 -21 23 -28 23 -167 0 -177 9 -201 90 -243 91 -48 197 -35 253 31 34
41 44 81 51 216 7 112 15 135 47 135 27 0 35 -23 54 -159 l16 -124 -35 -51
c-22 -32 -32 -54 -26 -60 6 -6 62 -3 152 7 79 10 154 17 168 17 42 0 300 90
300 105 0 8 -24 26 -52 42 -36 19 -54 35 -56 51 -5 34 18 27 84 -24 77 -60 98
-68 133 -49 16 8 31 21 34 28 3 8 -15 77 -39 153 -24 77 -47 157 -51 179 l-6
40 44 -46 c24 -26 60 -54 81 -63 l36 -17 9 -92 c7 -85 10 -92 31 -95 33 -5
151 43 195 79 53 44 80 101 74 157 -7 63 -51 123 -107 143 l-45 17 -9 82 c-6
56 -5 85 3 93 11 11 26 10 361 -44 102 -16 202 -32 223 -35 21 -3 41 -13 44
-21 7 -18 -105 -135 -232 -240 -144 -120 -144 -127 0 -13 44 36 125 109 179
163 98 97 100 98 138 92 21 -4 38 -10 38 -14 0 -9 -234 -239 -305 -298 -151
-126 -387 -271 -577 -352 -329 -141 -629 -203 -988 -203 -396 -1 -733 78
-1085 252 -260 129 -447 263 -655 469 -108 108 -122 125 -105 132 41 16 74 10
91 -17 29 -43 344 -319 344 -301 0 3 -42 39 -92 80 -130 106 -255 234 -242
247 6 6 71 23 145 38 l135 28 110 85 c128 100 155 119 169 119 5 0 62 -34 125
-76z m186 -250 c38 -35 44 -46 44 -82 0 -52 -23 -77 -78 -87 l-41 -7 20 -31
c42 -69 10 -143 -67 -154 -35 -4 -54 2 -149 51 -137 71 -149 81 -103 90 30 6
39 17 108 143 41 75 75 142 74 147 -1 6 -4 22 -8 34 -8 23 -3 21 74 -20 46
-23 102 -61 126 -84z m1944 62 l0 -43 -40 11 c-49 13 -74 1 -78 -37 -5 -40 29
-57 118 -57 94 0 119 -13 149 -73 21 -43 22 -53 12 -87 -18 -60 -97 -119 -183
-137 -27 -5 -28 -4 -28 42 0 41 2 46 18 39 9 -4 33 -9 54 -12 31 -3 39 0 54
23 13 20 15 33 8 53 -9 26 -14 27 -99 35 -50 4 -102 12 -118 19 -42 16 -67 59
-67 113 0 41 5 52 34 80 30 28 122 73 154 74 8 1 12 -14 12 -43z m-306 -138
c-15 -32 -13 -38 44 -205 33 -95 57 -175 54 -178 -14 -14 -45 3 -170 95 -74
55 -137 99 -138 97 -2 -2 12 -51 32 -109 31 -94 39 -108 67 -121 22 -11 27
-17 17 -21 -65 -24 -130 -44 -130 -40 0 3 6 17 14 32 12 25 9 40 -37 178 -44
135 -54 153 -79 165 l-28 14 59 22 60 21 106 -75 c58 -41 108 -73 110 -71 3 2
-6 35 -18 73 -18 56 -28 72 -56 89 l-34 20 64 22 c83 29 81 29 63 -8z m-1379
-24 c115 -33 168 -63 190 -110 24 -51 5 -101 -48 -127 -20 -10 -37 -25 -37
-32 0 -31 31 -152 46 -178 9 -16 14 -30 12 -31 -1 -2 -32 6 -68 18 l-65 21
-17 98 c-9 55 -19 102 -23 105 -10 10 -23 -18 -36 -76 -10 -40 -9 -58 0 -78 6
-15 10 -28 9 -29 -2 -1 -46 10 -98 25 l-95 27 32 16 c34 18 31 11 96 237 22
76 23 88 10 113 -7 15 -10 27 -5 27 4 0 48 -12 97 -26z m946 -102 c-19 -28
-19 -28 1 -177 17 -130 23 -153 45 -176 l24 -27 -33 -5 c-18 -4 -62 -9 -97
-13 l-64 -7 18 31 c18 29 18 36 0 182 -18 147 -19 152 -48 173 l-29 22 68 11
c38 7 84 12 102 13 l33 1 -20 -28z m-498 8 l71 0 -27 -28 c-25 -26 -27 -37
-35 -152 -10 -142 -1 -185 42 -196 74 -18 94 16 102 184 7 129 6 133 -16 157
l-23 25 71 0 c40 0 72 -3 72 -6 0 -3 -11 -19 -23 -34 -21 -25 -24 -41 -30
-160 -7 -145 -14 -166 -70 -201 -41 -26 -130 -21 -181 10 -53 33 -60 62 -52
219 7 131 6 139 -13 156 -30 27 -26 40 10 32 17 -3 63 -6 102 -6z m590 -72 c8
-13 29 -69 47 -125 29 -86 32 -106 22 -127 -14 -32 -32 -33 -60 -3 -23 24 -51
157 -52 240 0 43 21 51 43 15z"/>
<path d="M4920 6130 c0 -36 -5 -37 -52 -5 l-37 25 -191 -7 -191 -6 -120 -91
-119 -91 0 -512 0 -513 107 -72 108 -72 299 13 299 12 118 92 119 92 0 149 0
149 -107 -6 c-58 -4 -137 -7 -175 -7 l-68 0 0 -98 0 -99 -112 -6 c-62 -4 -139
-7 -170 -7 l-58 0 0 394 0 394 63 6 c34 3 113 7 175 10 l112 5 0 -90 0 -89
170 0 170 0 0 230 0 230 -170 0 -170 0 0 -30z m310 -9 c6 -12 10 -95 10 -199
0 -141 -3 -182 -14 -191 -9 -8 -56 -11 -142 -9 l-129 3 -6 73 c-3 40 -11 78
-18 85 -14 14 -308 12 -347 -3 -13 -6 -29 -21 -34 -35 -16 -41 -13 -734 3
-765 12 -25 15 -25 152 -28 209 -5 225 3 225 114 0 84 8 88 155 93 78 2 131
-1 137 -7 14 -14 22 -179 11 -222 -9 -36 -69 -92 -178 -166 -43 -29 -58 -34
-110 -34 -33 0 -151 -5 -261 -12 -157 -9 -211 -9 -242 0 -50 15 -187 104 -201
131 -7 13 -11 179 -11 503 l0 484 33 31 c17 16 68 57 111 89 l79 59 181 6
c161 5 185 3 218 -13 48 -23 75 -23 88 1 13 25 30 28 167 30 102 1 113 -1 123
-18z"/>
<path d="M3730 6049 c-146 -26 -265 -48 -265 -49 0 0 1 -60 2 -132 2 -149 -6
-136 81 -122 l32 5 0 -401 c0 -220 -2 -400 -4 -400 -2 0 -89 -18 -195 -40
-105 -22 -196 -40 -201 -40 -7 0 -9 140 -8 398 l3 397 45 11 45 11 3 136 c2
109 0 137 -11 137 -11 0 -340 -62 -484 -91 l-53 -10 0 -136 0 -135 43 7 c23 4
47 8 52 9 6 0 12 -163 15 -467 l5 -467 95 -45 c52 -25 104 -45 115 -44 11 0
162 28 337 62 l316 62 111 87 111 88 0 464 0 464 50 12 50 12 0 134 c0 101 -3
134 -12 133 -7 -1 -132 -23 -278 -50z m258 9 c17 -17 16 -192 -1 -206 -6 -6
-25 -14 -41 -18 -54 -13 -56 -29 -56 -513 l0 -439 -89 -70 c-48 -38 -97 -74
-107 -80 -18 -9 -145 -35 -224 -46 -19 -2 -60 -11 -90 -19 -30 -8 -86 -20
-125 -27 -38 -6 -102 -18 -141 -26 -69 -15 -74 -15 -125 7 -30 12 -72 34 -94
49 l-40 26 -5 451 c-3 281 -9 456 -15 462 -5 5 -28 11 -50 13 l-40 3 0 109 0
109 155 29 c85 15 190 35 232 44 118 24 119 23 116 -99 l-3 -102 -37 -17 c-28
-14 -39 -26 -47 -55 -7 -23 -11 -177 -11 -393 0 -444 -10 -418 152 -381 46 10
127 29 181 41 69 15 100 27 107 40 13 24 13 779 1 799 -5 8 -29 17 -53 20
l-43 6 0 99 c0 78 3 100 15 106 19 10 89 24 215 45 55 9 129 22 165 30 85 17
84 17 98 3z"/>
<path d="M7224 6029 c-3 -5 -81 -228 -175 -496 -93 -267 -171 -489 -174 -491
-3 -3 -31 -1 -63 5 -31 6 -60 9 -64 7 -4 -3 -6 -68 -5 -146 l2 -142 275 -43
c151 -23 281 -42 288 -43 9 0 12 34 12 139 l0 139 -52 12 c-29 7 -56 14 -60
16 -5 3 17 88 26 101 4 5 350 -57 356 -64 8 -9 41 -105 37 -109 -1 -1 -23 1
-49 5 l-48 8 0 -144 c0 -78 1 -143 3 -143 6 0 542 -100 565 -105 l22 -5 0 149
0 149 -31 6 c-17 3 -42 6 -56 6 -29 0 -4 -61 -253 600 -111 294 -202 536 -203
537 -9 8 -349 58 -353 52z m209 -48 c58 -11 111 -22 117 -26 12 -8 26 -40 87
-200 25 -66 65 -169 88 -230 24 -60 58 -148 75 -195 18 -47 52 -139 77 -205
25 -66 56 -151 69 -190 30 -85 45 -103 101 -117 52 -13 55 -20 51 -148 l-3
-95 -70 4 c-38 1 -124 14 -190 28 -66 14 -145 29 -175 34 -101 18 -105 22
-108 119 -4 105 2 130 29 130 57 0 74 44 45 114 -17 41 -42 51 -176 71 -58 8
-122 19 -144 24 -65 16 -102 -9 -113 -73 -7 -43 7 -62 50 -72 54 -11 57 -18
57 -124 0 -125 -2 -127 -112 -111 -46 7 -107 17 -136 23 -29 5 -98 16 -153 23
-54 7 -106 18 -114 25 -13 11 -15 33 -13 119 l3 106 53 3 c42 2 55 8 68 27 9
14 47 116 85 227 39 112 79 221 89 244 11 22 20 47 20 55 0 8 16 62 36 120
117 334 104 309 157 309 24 0 91 -9 150 -19z"/>
<path d="M7376 5548 c-22 -30 -99 -275 -93 -291 7 -19 74 -37 165 -44 93 -7
97 -2 76 73 -30 107 -86 260 -101 274 -19 18 -24 37 47 -172 30 -86 52 -160
49 -162 -5 -5 -139 14 -205 29 -21 5 -19 10 33 156 29 84 52 154 49 156 -2 2
-11 -6 -20 -19z"/>
<path d="M7376 5368 c-14 -40 -26 -76 -26 -80 0 -8 99 -22 107 -15 5 5 -45
167 -51 167 -2 0 -15 -33 -30 -72z"/>
<path d="M4020 4015 c0 -2 26 -22 58 -43 70 -47 82 -54 82 -49 0 2 -31 25 -70
51 -38 25 -70 44 -70 41z"/>
<path d="M6785 3994 l-30 -26 33 22 c17 12 32 23 32 26 0 7 -4 5 -35 -22z"/>
<path d="M6642 3905 c-93 -55 -107 -69 -25 -25 57 31 115 70 103 69 -3 0 -38
-20 -78 -44z"/>
<path d="M4170 3916 c0 -3 9 -10 20 -16 11 -6 20 -8 20 -6 0 3 -9 10 -20 16
-11 6 -20 8 -20 6z"/>
<path d="M4220 3886 c0 -3 14 -12 30 -21 17 -9 30 -13 30 -11 0 3 -13 12 -30
21 -16 9 -30 13 -30 11z"/>
<path d="M6480 3815 c-36 -19 -61 -34 -57 -35 10 0 127 59 127 65 0 7 2 8 -70
-30z"/>
<path d="M4310 3835 c0 -7 101 -57 106 -53 2 2 -21 16 -51 31 -30 15 -55 25
-55 22z"/>
<path d="M4450 3765 c14 -8 30 -14 35 -14 6 0 -1 6 -15 14 -14 8 -29 14 -35
14 -5 0 1 -6 15 -14z"/>
<path d="M6360 3760 c-8 -5 -10 -10 -5 -10 6 0 17 5 25 10 8 5 11 10 5 10 -5
0 -17 -5 -25 -10z"/>
<path d="M4510 3740 c8 -5 20 -10 25 -10 6 0 3 5 -5 10 -8 5 -19 10 -25 10 -5
0 -3 -5 5 -10z"/>
<path d="M6285 3729 c-22 -10 -29 -16 -15 -13 28 7 80 33 65 33 -5 0 -28 -9
-50 -20z"/>
<path d="M4560 3720 c8 -5 20 -10 25 -10 6 0 3 5 -5 10 -8 5 -19 10 -25 10 -5
0 -3 -5 5 -10z"/>
<path d="M4735 3660 c11 -5 27 -9 35 -9 9 0 8 4 -5 9 -11 5 -27 9 -35 9 -9 0
-8 -4 5 -9z"/>
<path d="M6075 3660 c-13 -5 -14 -9 -5 -9 8 0 24 4 35 9 13 5 14 9 5 9 -8 0
-24 -4 -35 -9z"/>
<path d="M4838 3633 c7 -3 16 -2 19 1 4 3 -2 6 -13 5 -11 0 -14 -3 -6 -6z"/>
<path d="M5988 3633 c7 -3 16 -2 19 1 4 3 -2 6 -13 5 -11 0 -14 -3 -6 -6z"/>
<path d="M4890 3620 c34 -11 60 -11 35 0 -11 5 -29 8 -40 8 -16 0 -15 -2 5 -8z"/>
<path d="M5910 3620 c-20 -6 -21 -8 -5 -8 11 0 31 4 45 8 20 6 21 8 5 8 -11 0
-31 -4 -45 -8z"/>
<path d="M4968 3603 c6 -2 18 -2 25 0 6 3 1 5 -13 5 -14 0 -19 -2 -12 -5z"/>
<path d="M5848 3603 c6 -2 18 -2 25 0 6 3 1 5 -13 5 -14 0 -19 -2 -12 -5z"/>
<path d="M5033 3593 c9 -2 23 -2 30 0 6 3 -1 5 -18 5 -16 0 -22 -2 -12 -5z"/>
<path d="M5740 3590 c-16 -6 -6 -7 30 -3 30 3 57 7 59 9 8 7 -64 2 -89 -6z"/>
<path d="M5088 3583 c7 -3 16 -2 19 1 4 3 -2 6 -13 5 -11 0 -14 -3 -6 -6z"/>
<path d="M5193 3573 c15 -2 37 -2 50 0 12 2 0 4 -28 4 -27 0 -38 -2 -22 -4z"/>
<path d="M5603 3573 c15 -2 39 -2 55 0 15 2 2 4 -28 4 -30 0 -43 -2 -27 -4z"/>
<path d="M5353 3563 c31 -2 83 -2 115 0 31 2 5 3 -58 3 -63 0 -89 -1 -57 -3z"/>
<path d="M4438 4278 c-39 -60 -50 -90 -36 -99 22 -14 38 -10 63 16 27 26 33
73 13 93 -17 17 -24 15 -40 -10z"/>
<path d="M4329 4084 c-34 -60 -32 -67 19 -80 30 -8 59 19 68 62 5 25 1 36 -17
53 -12 11 -26 21 -30 21 -4 0 -22 -25 -40 -56z"/>
<path d="M4815 4078 c-8 -28 -15 -58 -15 -65 0 -20 54 -16 73 5 33 36 13 112
-28 112 -8 0 -21 -22 -30 -52z"/>
<path d="M3461 8944 c0 -11 3 -14 6 -6 3 7 2 16 -1 19 -3 4 -6 -2 -5 -13z"/>
<path d="M3525 8784 c25 -36 45 -75 45 -87 0 -12 -21 -41 -53 -71 -29 -28 -61
-62 -72 -76 -11 -14 9 3 45 37 36 34 74 69 84 76 18 13 18 17 6 48 -13 33 -86
139 -95 139 -3 0 15 -30 40 -66z"/>
<path d="M3405 8489 c-9 -17 -15 -34 -13 -39 2 -5 11 9 20 30 20 47 15 53 -7
9z"/>
<path d="M3391 8385 c-1 -35 -8 -46 -53 -88 -38 -34 -41 -40 -13 -18 22 17 51
39 64 49 22 17 23 22 13 58 l-10 39 -1 -40z"/>
<path d="M3271 8194 c0 -11 3 -14 6 -6 3 7 2 16 -1 19 -3 4 -6 -2 -5 -13z"/>
<path d="M3309 8106 c37 -59 28 -90 -53 -175 l-51 -55 60 51 c45 38 63 62 73
93 12 40 11 45 -14 81 -33 48 -43 51 -15 5z"/>
<path d="M3214 7730 c9 -13 16 -27 16 -31 0 -4 -29 -47 -63 -95 -35 -49 -72
-102 -81 -119 -17 -30 -17 -30 1 -5 10 13 51 69 91 124 l74 99 -27 26 c-28 26
-28 26 -11 1z"/>
<path d="M3038 7413 c-35 -53 -111 -193 -105 -193 3 0 26 37 51 83 25 45 55
97 67 115 11 17 19 32 16 32 -2 0 -15 -17 -29 -37z"/>
<path d="M2868 7093 c-48 -102 -101 -243 -95 -249 2 -3 21 42 42 98 21 57 53
134 72 172 19 37 32 70 30 72 -2 2 -24 -40 -49 -93z"/>
<path d="M2756 6804 c-4 -14 -5 -28 -3 -31 3 -2 8 8 11 23 4 14 5 28 3 31 -3
2 -8 -8 -11 -23z"/>
<path d="M2712 6653 c-12 -43 -23 -96 -26 -118 -4 -22 7 12 24 75 16 62 28
116 26 117 -2 2 -13 -31 -24 -74z"/>
<path d="M2662 6433 c-6 -32 -14 -84 -18 -117 -4 -35 -14 -66 -24 -76 -11 -11
-54 -24 -112 -35 -52 -9 -112 -25 -134 -36 -21 -11 -30 -16 -19 -13 11 4 78
20 150 36 71 16 131 31 133 32 5 6 42 259 38 263 -2 2 -8 -22 -14 -54z"/>
<path d="M2305 5645 c0 -242 1 -340 2 -217 2 123 2 321 0 440 -1 119 -2 19 -2
-223z"/>
<path d="M2392 5108 c16 -16 24 -19 26 -10 4 16 3 18 -26 27 l-23 7 23 -24z"/>
<path d="M4865 2280 c318 -327 338 -347 327 -325 -6 11 -131 139 -279 285
l-267 265 219 -225z"/>
<path d="M4320 1055 c-6 -8 -10 -21 -8 -31 2 -11 7 -6 15 15 13 34 11 38 -7
16z"/>
</g>
</svg>
